<svg width="27" height="26" viewBox="0 0 27 26" fill="none" xmlns="http://www.w3.org/2000/svg">
<path fill-rule="evenodd" clip-rule="evenodd" d="M13.3136 13.7734L24.3088 24.5273L25.008 23.8124L14.0247 13.0702L24.2326 2.97523L23.5269 2.2633L13.308 12.3691L2.70619 2L2.00697 2.71491L12.5968 13.0724L2 23.552L2.70572 24.2639L13.3136 13.7734Z" fill="white"/>
<path d="M24.3088 24.5273L23.6095 25.2422L24.3244 25.9414L25.0237 25.2265L24.3088 24.5273ZM13.3136 13.7734L14.0128 13.0585L13.3097 12.3708L12.6104 13.0624L13.3136 13.7734ZM25.008 23.8124L25.7229 24.5116L26.4221 23.7967L25.7072 23.0975L25.008 23.8124ZM14.0247 13.0702L13.3216 12.3591L12.5986 13.0741L13.3255 13.7851L14.0247 13.0702ZM24.2326 2.97523L24.9358 3.68626L25.6476 2.98226L24.9428 2.27122L24.2326 2.97523ZM23.5269 2.2633L24.2371 1.5593L23.5339 0.849946L22.8237 1.55227L23.5269 2.2633ZM13.308 12.3691L12.6088 13.0841L13.3119 13.7717L14.0111 13.0802L13.308 12.3691ZM2.70619 2L3.40541 1.28509L2.6905 0.585873L1.99128 1.30078L2.70619 2ZM2.00697 2.71491L1.29206 2.01569L0.592844 2.73059L1.30775 3.42981L2.00697 2.71491ZM12.5968 13.0724L13.3 13.7834L14.023 13.0685L13.2961 12.3575L12.5968 13.0724ZM2 23.552L1.29684 22.841L0.584965 23.545L1.2898 24.256L2 23.552ZM2.70572 24.2639L1.99553 24.9679L2.6987 25.6773L3.40888 24.975L2.70572 24.2639ZM25.008 23.8124L14.0128 13.0585L12.6144 14.4883L23.6095 25.2422L25.008 23.8124ZM24.2931 23.1132L23.5938 23.8281L25.0237 25.2265L25.7229 24.5116L24.2931 23.1132ZM13.3255 13.7851L24.3088 24.5273L25.7072 23.0975L14.7239 12.3553L13.3255 13.7851ZM23.5294 2.2642L13.3216 12.3591L14.7279 13.7812L24.9358 3.68626L23.5294 2.2642ZM22.8167 2.96731L23.5224 3.67924L24.9428 2.27122L24.2371 1.5593L22.8167 2.96731ZM14.0111 13.0802L24.23 2.97433L22.8237 1.55227L12.6048 11.6581L14.0111 13.0802ZM2.00697 2.71491L12.6088 13.0841L14.0072 11.6542L3.40541 1.28509L2.00697 2.71491ZM2.72188 3.41413L3.4211 2.69922L1.99128 1.30078L1.29206 2.01569L2.72188 3.41413ZM13.2961 12.3575L2.70619 2L1.30775 3.42981L11.8976 13.7873L13.2961 12.3575ZM2.70316 24.263L13.3 13.7834L11.8937 12.3614L1.29684 22.841L2.70316 24.263ZM3.41592 23.5599L2.7102 22.848L1.2898 24.256L1.99553 24.9679L3.41592 23.5599ZM12.6104 13.0624L2.00256 23.5529L3.40888 24.975L14.0168 14.4845L12.6104 13.0624Z" fill="white"/>
</svg>
