<svg width="39" height="33" viewBox="0 0 39 33" fill="none" xmlns="http://www.w3.org/2000/svg">
<path d="M37.5 21.2144C36.6715 21.2144 35.9999 21.742 35.9999 22.3929V29.4644C35.9999 30.1153 35.3284 30.643 34.4999 30.643H4.50008C3.67163 30.643 3.00005 30.1153 3.00005 29.4644V22.3929C3.00005 21.742 2.32848 21.2144 1.50003 21.2144C0.671571 21.2144 0 21.742 0 22.3929V29.4644C0 31.4171 2.01471 33.0001 4.49999 33.0001H34.5C36.9853 33.0001 39 31.4171 39 29.4644V22.3929C39 21.742 38.3284 21.2144 37.5 21.2144Z" fill="#1E1D1D"/>
<path d="M27.7831 20.1984C27.2168 19.7613 26.319 19.7613 25.7528 20.1984L20.9378 24.0446V1.16803C20.9378 0.522936 20.2836 0 19.4765 0C18.6694 0 18.0151 0.522936 18.0151 1.16803V24.0447L13.203 20.1984C12.6225 19.7503 11.6974 19.7631 11.1368 20.2271C10.5898 20.6797 10.5898 21.3973 11.1368 21.85L18.4433 27.69C19.0133 28.1467 19.9385 28.1476 20.5099 27.6921C20.5107 27.6914 20.5116 27.6907 20.5125 27.69L27.819 21.85C28.3797 21.386 28.3636 20.6465 27.7831 20.1984Z" fill="#1E1D1D"/>
</svg>
