<svg width="24" height="25" viewBox="0 0 24 25" fill="none" xmlns="http://www.w3.org/2000/svg">
<path d="M12.0004 8.92432C11.3067 8.92432 10.8135 9.18652 10.8135 9.5729V14.8304C10.8135 15.1615 11.3068 15.4927 12.0004 15.4927C12.6633 15.4927 13.2028 15.1615 13.2028 14.8304V9.5729C13.2028 9.18652 12.6633 8.92432 12.0004 8.92432Z" fill="black"/>
<path d="M12.0004 5.68164C11.2913 5.68164 10.7363 6.13701 10.7363 6.66138C10.7363 7.18574 11.2913 7.65493 12.0004 7.65493C12.6941 7.65493 13.249 7.18574 13.249 6.66138C13.249 6.13706 12.694 5.68164 12.0004 5.68164Z" fill="black"/>
<path d="M12 0C5.36716 0 0 4.80215 0 10.736C0 15.5813 3.56362 19.6044 8.3682 20.9708L11.0972 24.5717C11.3002 24.8396 11.6384 25 12 25C12.3616 25 12.6998 24.8396 12.9028 24.5717L15.6318 20.9708C20.4385 19.6038 24 15.5792 24 10.736C24 4.79839 18.6285 0 12 0ZM14.6534 19.1943C14.4049 19.2565 14.1892 19.3955 14.0444 19.5865L12 22.284L9.95569 19.5866C9.81082 19.3955 9.59509 19.2565 9.34664 19.1943C5.25693 18.1707 2.18182 14.8038 2.18182 10.736C2.18182 5.89307 6.58625 1.95312 12 1.95312C17.4137 1.95312 21.8182 5.89307 21.8182 10.736C21.8182 14.8078 18.7385 18.1718 14.6534 19.1943Z" fill="black"/>
</svg>
