<svg width="94" height="94" viewBox="0 0 94 94" fill="none" xmlns="http://www.w3.org/2000/svg">
<path d="M47 0C21.0844 0 0 21.0838 0 46.9998C0 72.9157 21.0844 94 47 94C72.9156 94 94 72.9157 94 46.9998C94 21.0838 72.9161 0 47 0ZM73.9882 39.0611L44.4605 68.5886C43.205 69.8442 41.536 70.5352 39.7607 70.5352C37.9853 70.5352 36.3163 69.8442 35.0608 68.5886L20.0118 53.5397C18.7563 52.2842 18.0647 50.6152 18.0647 48.8399C18.0647 47.064 18.7563 45.3951 20.0118 44.1395C21.2668 42.884 22.9358 42.1925 24.7116 42.1925C26.487 42.1925 28.1565 42.884 29.4115 44.14L39.7602 54.4882L64.5875 29.661C65.8431 28.4054 67.512 27.7144 69.2874 27.7144C71.0628 27.7144 72.7317 28.4054 73.9873 29.661C76.5797 32.2534 76.5797 36.4696 73.9882 39.0611Z" fill="#FDB600"/>
</svg>
