<svg width="200" height="169" viewBox="0 0 200 169" fill="none" xmlns="http://www.w3.org/2000/svg">
<g filter="url(#filter0_d)">
<rect x="14" y="12" width="168" height="137" rx="15" fill="white"/>
</g>
<path d="M101.907 39.1416C77.1324 39.1416 56.9766 58.8542 56.9766 83.0848C56.9766 107.315 77.1324 127.028 101.907 127.028C126.681 127.028 146.837 107.315 146.837 83.0848C146.837 58.8542 126.682 39.1416 101.907 39.1416ZM127.707 75.6624L99.4791 103.27C98.2789 104.444 96.6835 105.09 94.9863 105.09C93.2891 105.09 91.6936 104.444 90.4934 103.27L76.1071 89.1994C74.9068 88.0255 74.2458 86.4651 74.2458 84.8052C74.2458 83.1448 74.9068 81.5844 76.1071 80.4106C77.3068 79.2367 78.9023 78.5902 80.5999 78.5902C82.2971 78.5902 83.8931 79.2367 85.0928 80.411L94.9858 90.0862L118.72 66.8736C119.92 65.6997 121.516 65.0536 123.213 65.0536C124.91 65.0536 126.505 65.6997 127.706 66.8736C130.184 69.2974 130.184 73.2395 127.707 75.6624Z" fill="#00D930"/>
<defs>
<filter id="filter0_d" x="0" y="0" width="200" height="169" filterUnits="userSpaceOnUse" color-interpolation-filters="sRGB">
<feFlood flood-opacity="0" result="BackgroundImageFix"/>
<feColorMatrix in="SourceAlpha" type="matrix" values="0 0 0 0 0 0 0 0 0 0 0 0 0 0 0 0 0 0 127 0"/>
<feOffset dx="2" dy="4"/>
<feGaussianBlur stdDeviation="8"/>
<feColorMatrix type="matrix" values="0 0 0 0 1 0 0 0 0 0.93 0 0 0 0 0.75 0 0 0 1 0"/>
<feBlend mode="normal" in2="BackgroundImageFix" result="effect1_dropShadow"/>
<feBlend mode="normal" in="SourceGraphic" in2="effect1_dropShadow" result="shape"/>
</filter>
</defs>
</svg>
