<svg width="64" height="43" viewBox="0 0 64 43" fill="none" xmlns="http://www.w3.org/2000/svg">
<g filter="url(#filter0_d)">
<path fill-rule="evenodd" clip-rule="evenodd" d="M28.6003 1.77636C29.6649 0.108526 31.9448 -0.491361 33.6924 0.436479C34.5416 0.887297 35.1088 1.61583 35.3456 2.43709L47.6767 21.7513C48.7415 23.4191 48.188 25.5233 46.4404 26.4513C44.6928 27.3792 42.4129 26.7795 41.3482 25.1118L31.7623 10.0974L22.3468 24.8473C21.2822 26.5151 19.0023 27.115 17.2547 26.1871C15.507 25.2593 14.9534 23.1551 16.018 21.4872L28.6003 1.77636ZM17.1238 4.09628C18.1884 2.42845 20.4682 1.82856 22.2159 2.7564C23.9635 3.68424 24.5172 5.78845 23.4526 7.45629L10.8703 27.1672C9.80562 28.835 7.5258 29.4349 5.77815 28.5071C4.0305 27.5792 3.47682 25.475 4.54148 23.8072L17.1238 4.09628ZM32.1878 14.4334C30.1656 14.4334 28.5263 16.0727 28.5263 18.0949V31.321C28.5263 33.3432 30.1656 34.9825 32.1878 34.9825C34.2101 34.9825 35.8494 33.3432 35.8494 31.321V18.0949C35.8494 16.0727 34.2101 14.4334 32.1878 14.4334ZM41.312 2.68454C39.5645 3.61249 39.0109 5.71673 40.0757 7.38448L52.6596 27.0946C53.7244 28.7624 56.0042 29.3621 57.7518 28.4341C59.4994 27.5062 60.0529 25.4019 58.9881 23.7342L46.4042 4.02406C45.3395 2.35631 43.0596 1.75658 41.312 2.68454Z" fill="white"/>
</g>
<defs>
<filter id="filter0_d" x="0" y="0" width="63.5297" height="42.9825" filterUnits="userSpaceOnUse" color-interpolation-filters="sRGB">
<feFlood flood-opacity="0" result="BackgroundImageFix"/>
<feColorMatrix in="SourceAlpha" type="matrix" values="0 0 0 0 0 0 0 0 0 0 0 0 0 0 0 0 0 0 127 0"/>
<feOffset dy="4"/>
<feGaussianBlur stdDeviation="2"/>
<feColorMatrix type="matrix" values="0 0 0 0 0 0 0 0 0 0 0 0 0 0 0 0 0 0 0.25 0"/>
<feBlend mode="normal" in2="BackgroundImageFix" result="effect1_dropShadow"/>
<feBlend mode="normal" in="SourceGraphic" in2="effect1_dropShadow" result="shape"/>
</filter>
</defs>
</svg>
