<svg width="30" height="30" viewBox="0 0 30 30" fill="none" xmlns="http://www.w3.org/2000/svg">
<g clip-path="url(#clip0)">
<path d="M22.0625 15.7969H-0.0625C-0.580281 15.7969 -1 16.3215 -1 16.9688C-1 17.616 -0.580281 18.1406 -0.0625 18.1406H22.0625C22.5803 18.1406 23 17.616 23 16.9688C23 16.3215 22.5803 15.7969 22.0625 15.7969Z" fill="white"/>
<path d="M27.8281 7.45312H0.171875C-0.475352 7.45312 -1 7.97777 -1 8.625C-1 9.27223 -0.475352 9.79688 0.171875 9.79688H27.8281C28.4754 9.79688 29 9.27223 29 8.625C29 7.97777 28.4754 7.45312 27.8281 7.45312Z" fill="white"/>
<path d="M25.9062 24.1406H0.09375C-0.510328 24.1406 -1 24.6653 -1 25.3125C-1 25.9597 -0.510328 26.4844 0.09375 26.4844H25.9062C26.5103 26.4844 27 25.9597 27 25.3125C27 24.6653 26.5103 24.1406 25.9062 24.1406Z" fill="white"/>
</g>
<defs>
<clipPath id="clip0">
<rect width="30" height="30" fill="white"/>
</clipPath>
</defs>
</svg>
